<?xml version="1.0" encoding="utf-8" standalone="no"?>
<!DOCTYPE svg PUBLIC "-//W3C//DTD SVG 1.1//EN"
  "http://www.w3.org/Graphics/SVG/1.1/DTD/svg11.dtd">
<!-- Created with matplotlib (http://matplotlib.org/) -->
<svg height="288pt" version="1.1" viewBox="0 0 432 288" width="432pt" xmlns="http://www.w3.org/2000/svg" xmlns:xlink="http://www.w3.org/1999/xlink">
 <defs>
  <style type="text/css">
*{stroke-linecap:butt;stroke-linejoin:round;}
  </style>
 </defs>
 <g id="figure_1">
  <g id="patch_1">
   <path d="M 0 288 
L 432 288 
L 432 0 
L 0 0 
z
" style="fill:#ffffff;"/>
  </g>
  <g id="axes_1">
   <g id="patch_2">
    <path d="M 54 252 
L 388.8 252 
L 388.8 34.56 
L 54 34.56 
z
" style="fill:#ffffff;"/>
   </g>
   <g id="matplotlib.axis_1">
    <g id="xtick_1">
     <g id="line2d_1"/>
     <g id="text_1">
      <!-- 0 -->
      <defs>
       <path d="M 4.15625 35.296875 
Q 4.15625 48 6.765625 55.734375 
Q 9.375 63.484375 14.515625 67.671875 
Q 19.671875 71.875 27.484375 71.875 
Q 33.25 71.875 37.59375 69.546875 
Q 41.9375 67.234375 44.765625 62.859375 
Q 47.609375 58.5 49.21875 52.21875 
Q 50.828125 45.953125 50.828125 35.296875 
Q 50.828125 22.703125 48.234375 14.96875 
Q 45.65625 7.234375 40.5 3 
Q 35.359375 -1.21875 27.484375 -1.21875 
Q 17.140625 -1.21875 11.234375 6.203125 
Q 4.15625 15.140625 4.15625 35.296875 
z
M 13.1875 35.296875 
Q 13.1875 17.671875 17.3125 11.828125 
Q 21.4375 6 27.484375 6 
Q 33.546875 6 37.671875 11.859375 
Q 41.796875 17.71875 41.796875 35.296875 
Q 41.796875 52.984375 37.671875 58.78125 
Q 33.546875 64.59375 27.390625 64.59375 
Q 21.34375 64.59375 17.71875 59.46875 
Q 13.1875 52.9375 13.1875 35.296875 
z
" id="ArialMT-30"/>
      </defs>
      <g style="fill:#262626;" transform="translate(64.02954 269.736719)scale(0.15 -0.15)">
       <use xlink:href="#ArialMT-30"/>
      </g>
     </g>
    </g>
    <g id="xtick_2">
     <g id="line2d_2"/>
     <g id="text_2">
      <!-- 50 -->
      <defs>
       <path d="M 4.15625 18.75 
L 13.375 19.53125 
Q 14.40625 12.796875 18.140625 9.390625 
Q 21.875 6 27.15625 6 
Q 33.5 6 37.890625 10.78125 
Q 42.28125 15.578125 42.28125 23.484375 
Q 42.28125 31 38.0625 35.34375 
Q 33.84375 39.703125 27 39.703125 
Q 22.75 39.703125 19.328125 37.765625 
Q 15.921875 35.84375 13.96875 32.765625 
L 5.71875 33.84375 
L 12.640625 70.609375 
L 48.25 70.609375 
L 48.25 62.203125 
L 19.671875 62.203125 
L 15.828125 42.96875 
Q 22.265625 47.46875 29.34375 47.46875 
Q 38.71875 47.46875 45.15625 40.96875 
Q 51.609375 34.46875 51.609375 24.265625 
Q 51.609375 14.546875 45.953125 7.46875 
Q 39.0625 -1.21875 27.15625 -1.21875 
Q 17.390625 -1.21875 11.203125 4.25 
Q 5.03125 9.71875 4.15625 18.75 
z
" id="ArialMT-35"/>
      </defs>
      <g style="fill:#262626;" transform="translate(110.755766 269.736719)scale(0.15 -0.15)">
       <use xlink:href="#ArialMT-35"/>
       <use x="55.615234" xlink:href="#ArialMT-30"/>
      </g>
     </g>
    </g>
    <g id="xtick_3">
     <g id="line2d_3"/>
     <g id="text_3">
      <!-- 100 -->
      <defs>
       <path d="M 37.25 0 
L 28.46875 0 
L 28.46875 56 
Q 25.296875 52.984375 20.140625 49.953125 
Q 14.984375 46.921875 10.890625 45.40625 
L 10.890625 53.90625 
Q 18.265625 57.375 23.78125 62.296875 
Q 29.296875 67.234375 31.59375 71.875 
L 37.25 71.875 
z
" id="ArialMT-31"/>
      </defs>
      <g style="fill:#262626;" transform="translate(157.481992 269.736719)scale(0.15 -0.15)">
       <use xlink:href="#ArialMT-31"/>
       <use x="55.615234" xlink:href="#ArialMT-30"/>
       <use x="111.230469" xlink:href="#ArialMT-30"/>
      </g>
     </g>
    </g>
    <g id="xtick_4">
     <g id="line2d_4"/>
     <g id="text_4">
      <!-- 150 -->
      <g style="fill:#262626;" transform="translate(208.378921 269.736719)scale(0.15 -0.15)">
       <use xlink:href="#ArialMT-31"/>
       <use x="55.615234" xlink:href="#ArialMT-35"/>
       <use x="111.230469" xlink:href="#ArialMT-30"/>
      </g>
     </g>
    </g>
    <g id="xtick_5">
     <g id="line2d_5"/>
     <g id="text_5">
      <!-- 200 -->
      <defs>
       <path d="M 50.34375 8.453125 
L 50.34375 0 
L 3.03125 0 
Q 2.9375 3.171875 4.046875 6.109375 
Q 5.859375 10.9375 9.828125 15.625 
Q 13.8125 20.3125 21.34375 26.46875 
Q 33.015625 36.03125 37.109375 41.625 
Q 41.21875 47.21875 41.21875 52.203125 
Q 41.21875 57.421875 37.46875 61 
Q 33.734375 64.59375 27.734375 64.59375 
Q 21.390625 64.59375 17.578125 60.78125 
Q 13.765625 56.984375 13.71875 50.25 
L 4.6875 51.171875 
Q 5.609375 61.28125 11.65625 66.578125 
Q 17.71875 71.875 27.9375 71.875 
Q 38.234375 71.875 44.234375 66.15625 
Q 50.25 60.453125 50.25 52 
Q 50.25 47.703125 48.484375 43.546875 
Q 46.734375 39.40625 42.65625 34.8125 
Q 38.578125 30.21875 29.109375 22.21875 
Q 21.1875 15.578125 18.9375 13.203125 
Q 16.703125 10.84375 15.234375 8.453125 
z
" id="ArialMT-32"/>
      </defs>
      <g style="fill:#262626;" transform="translate(259.27585 269.736719)scale(0.15 -0.15)">
       <use xlink:href="#ArialMT-32"/>
       <use x="55.615234" xlink:href="#ArialMT-30"/>
       <use x="111.230469" xlink:href="#ArialMT-30"/>
      </g>
     </g>
    </g>
    <g id="xtick_6">
     <g id="line2d_6"/>
     <g id="text_6">
      <!-- 250 -->
      <g style="fill:#262626;" transform="translate(310.17278 269.736719)scale(0.15 -0.15)">
       <use xlink:href="#ArialMT-32"/>
       <use x="55.615234" xlink:href="#ArialMT-35"/>
       <use x="111.230469" xlink:href="#ArialMT-30"/>
      </g>
     </g>
    </g>
    <g id="xtick_7">
     <g id="line2d_7"/>
     <g id="text_7">
      <!-- 300 -->
      <defs>
       <path d="M 4.203125 18.890625 
L 12.984375 20.0625 
Q 14.5 12.59375 18.140625 9.296875 
Q 21.78125 6 27 6 
Q 33.203125 6 37.46875 10.296875 
Q 41.75 14.59375 41.75 20.953125 
Q 41.75 27 37.796875 30.921875 
Q 33.84375 34.859375 27.734375 34.859375 
Q 25.25 34.859375 21.53125 33.890625 
L 22.515625 41.609375 
Q 23.390625 41.5 23.921875 41.5 
Q 29.546875 41.5 34.03125 44.421875 
Q 38.53125 47.359375 38.53125 53.46875 
Q 38.53125 58.296875 35.25 61.46875 
Q 31.984375 64.65625 26.8125 64.65625 
Q 21.6875 64.65625 18.265625 61.421875 
Q 14.84375 58.203125 13.875 51.765625 
L 5.078125 53.328125 
Q 6.6875 62.15625 12.390625 67.015625 
Q 18.109375 71.875 26.609375 71.875 
Q 32.46875 71.875 37.390625 69.359375 
Q 42.328125 66.84375 44.9375 62.5 
Q 47.5625 58.15625 47.5625 53.265625 
Q 47.5625 48.640625 45.0625 44.828125 
Q 42.578125 41.015625 37.703125 38.765625 
Q 44.046875 37.3125 47.5625 32.6875 
Q 51.078125 28.078125 51.078125 21.140625 
Q 51.078125 11.765625 44.234375 5.25 
Q 37.40625 -1.265625 26.953125 -1.265625 
Q 17.53125 -1.265625 11.296875 4.34375 
Q 5.078125 9.96875 4.203125 18.890625 
z
" id="ArialMT-33"/>
      </defs>
      <g style="fill:#262626;" transform="translate(361.069709 269.736719)scale(0.15 -0.15)">
       <use xlink:href="#ArialMT-33"/>
       <use x="55.615234" xlink:href="#ArialMT-30"/>
       <use x="111.230469" xlink:href="#ArialMT-30"/>
      </g>
     </g>
    </g>
    <g id="text_8">
     <!-- Time -->
     <defs>
      <path d="M 25.921875 0 
L 25.921875 63.140625 
L 2.34375 63.140625 
L 2.34375 71.578125 
L 59.078125 71.578125 
L 59.078125 63.140625 
L 35.40625 63.140625 
L 35.40625 0 
z
" id="ArialMT-54"/>
      <path d="M 6.640625 61.46875 
L 6.640625 71.578125 
L 15.4375 71.578125 
L 15.4375 61.46875 
z
M 6.640625 0 
L 6.640625 51.859375 
L 15.4375 51.859375 
L 15.4375 0 
z
" id="ArialMT-69"/>
      <path d="M 6.59375 0 
L 6.59375 51.859375 
L 14.453125 51.859375 
L 14.453125 44.578125 
Q 16.890625 48.390625 20.9375 50.703125 
Q 25 53.03125 30.171875 53.03125 
Q 35.9375 53.03125 39.625 50.640625 
Q 43.3125 48.25 44.828125 43.953125 
Q 50.984375 53.03125 60.84375 53.03125 
Q 68.5625 53.03125 72.703125 48.75 
Q 76.859375 44.484375 76.859375 35.59375 
L 76.859375 0 
L 68.109375 0 
L 68.109375 32.671875 
Q 68.109375 37.9375 67.25 40.25 
Q 66.40625 42.578125 64.15625 43.984375 
Q 61.921875 45.40625 58.890625 45.40625 
Q 53.421875 45.40625 49.796875 41.765625 
Q 46.1875 38.140625 46.1875 30.125 
L 46.1875 0 
L 37.40625 0 
L 37.40625 33.6875 
Q 37.40625 39.546875 35.25 42.46875 
Q 33.109375 45.40625 28.21875 45.40625 
Q 24.515625 45.40625 21.359375 43.453125 
Q 18.21875 41.5 16.796875 37.734375 
Q 15.375 33.984375 15.375 26.90625 
L 15.375 0 
z
" id="ArialMT-6d"/>
      <path d="M 42.09375 16.703125 
L 51.171875 15.578125 
Q 49.03125 7.625 43.21875 3.21875 
Q 37.40625 -1.171875 28.375 -1.171875 
Q 17 -1.171875 10.328125 5.828125 
Q 3.65625 12.84375 3.65625 25.484375 
Q 3.65625 38.578125 10.390625 45.796875 
Q 17.140625 53.03125 27.875 53.03125 
Q 38.28125 53.03125 44.875 45.953125 
Q 51.46875 38.875 51.46875 26.03125 
Q 51.46875 25.25 51.421875 23.6875 
L 12.75 23.6875 
Q 13.234375 15.140625 17.578125 10.59375 
Q 21.921875 6.0625 28.421875 6.0625 
Q 33.25 6.0625 36.671875 8.59375 
Q 40.09375 11.140625 42.09375 16.703125 
z
M 13.234375 30.90625 
L 42.1875 30.90625 
Q 41.609375 37.453125 38.875 40.71875 
Q 34.671875 45.796875 27.984375 45.796875 
Q 21.921875 45.796875 17.796875 41.75 
Q 13.671875 37.703125 13.234375 30.90625 
z
" id="ArialMT-65"/>
     </defs>
     <g style="fill:#262626;" transform="translate(203.072109 288.528359)scale(0.165 -0.165)">
      <use xlink:href="#ArialMT-54"/>
      <use x="61.037109" xlink:href="#ArialMT-69"/>
      <use x="83.253906" xlink:href="#ArialMT-6d"/>
      <use x="166.554688" xlink:href="#ArialMT-65"/>
     </g>
    </g>
   </g>
   <g id="matplotlib.axis_2">
    <g id="ytick_1">
     <g id="line2d_8"/>
     <g id="text_9">
      <!-- −0.2 -->
      <defs>
       <path d="M 52.828125 31.203125 
L 5.5625 31.203125 
L 5.5625 39.40625 
L 52.828125 39.40625 
z
" id="ArialMT-2212"/>
       <path d="M 9.078125 0 
L 9.078125 10.015625 
L 19.09375 10.015625 
L 19.09375 0 
z
" id="ArialMT-2e"/>
      </defs>
      <g style="fill:#262626;" transform="translate(17.389063 222.159153)scale(0.15 -0.15)">
       <use xlink:href="#ArialMT-2212"/>
       <use x="58.398438" xlink:href="#ArialMT-30"/>
       <use x="114.013672" xlink:href="#ArialMT-2e"/>
       <use x="141.796875" xlink:href="#ArialMT-32"/>
      </g>
     </g>
    </g>
    <g id="ytick_2">
     <g id="line2d_9"/>
     <g id="text_10">
      <!-- −0.1 -->
      <g style="fill:#262626;" transform="translate(17.389063 181.831628)scale(0.15 -0.15)">
       <use xlink:href="#ArialMT-2212"/>
       <use x="58.398438" xlink:href="#ArialMT-30"/>
       <use x="114.013672" xlink:href="#ArialMT-2e"/>
       <use x="141.796875" xlink:href="#ArialMT-31"/>
      </g>
     </g>
    </g>
    <g id="ytick_3">
     <g id="line2d_10"/>
     <g id="text_11">
      <!-- 0.0 -->
      <g style="fill:#262626;" transform="translate(26.15 141.504103)scale(0.15 -0.15)">
       <use xlink:href="#ArialMT-30"/>
       <use x="55.615234" xlink:href="#ArialMT-2e"/>
       <use x="83.398438" xlink:href="#ArialMT-30"/>
      </g>
     </g>
    </g>
    <g id="ytick_4">
     <g id="line2d_11"/>
     <g id="text_12">
      <!-- 0.1 -->
      <g style="fill:#262626;" transform="translate(26.15 101.176578)scale(0.15 -0.15)">
       <use xlink:href="#ArialMT-30"/>
       <use x="55.615234" xlink:href="#ArialMT-2e"/>
       <use x="83.398438" xlink:href="#ArialMT-31"/>
      </g>
     </g>
    </g>
    <g id="ytick_5">
     <g id="line2d_12"/>
     <g id="text_13">
      <!-- 0.2 -->
      <g style="fill:#262626;" transform="translate(26.15 60.849052)scale(0.15 -0.15)">
       <use xlink:href="#ArialMT-30"/>
       <use x="55.615234" xlink:href="#ArialMT-2e"/>
       <use x="83.398438" xlink:href="#ArialMT-32"/>
      </g>
     </g>
    </g>
    <g id="text_14">
     <!-- d2V/dt2 -->
     <defs>
      <path d="M 40.234375 0 
L 40.234375 6.546875 
Q 35.296875 -1.171875 25.734375 -1.171875 
Q 19.53125 -1.171875 14.328125 2.25 
Q 9.125 5.671875 6.265625 11.796875 
Q 3.421875 17.921875 3.421875 25.875 
Q 3.421875 33.640625 6 39.96875 
Q 8.59375 46.296875 13.765625 49.65625 
Q 18.953125 53.03125 25.34375 53.03125 
Q 30.03125 53.03125 33.6875 51.046875 
Q 37.359375 49.078125 39.65625 45.90625 
L 39.65625 71.578125 
L 48.390625 71.578125 
L 48.390625 0 
z
M 12.453125 25.875 
Q 12.453125 15.921875 16.640625 10.984375 
Q 20.84375 6.0625 26.5625 6.0625 
Q 32.328125 6.0625 36.34375 10.765625 
Q 40.375 15.484375 40.375 25.140625 
Q 40.375 35.796875 36.265625 40.765625 
Q 32.171875 45.75 26.171875 45.75 
Q 20.3125 45.75 16.375 40.96875 
Q 12.453125 36.1875 12.453125 25.875 
z
" id="ArialMT-64"/>
      <path d="M 28.171875 0 
L 0.4375 71.578125 
L 10.6875 71.578125 
L 29.296875 19.578125 
Q 31.546875 13.328125 33.0625 7.859375 
Q 34.71875 13.71875 36.921875 19.578125 
L 56.25 71.578125 
L 65.921875 71.578125 
L 37.890625 0 
z
" id="ArialMT-56"/>
      <path d="M 0 -1.21875 
L 20.75 72.796875 
L 27.78125 72.796875 
L 7.078125 -1.21875 
z
" id="ArialMT-2f"/>
      <path d="M 25.78125 7.859375 
L 27.046875 0.09375 
Q 23.34375 -0.6875 20.40625 -0.6875 
Q 15.625 -0.6875 12.984375 0.828125 
Q 10.359375 2.34375 9.28125 4.8125 
Q 8.203125 7.28125 8.203125 15.1875 
L 8.203125 45.015625 
L 1.765625 45.015625 
L 1.765625 51.859375 
L 8.203125 51.859375 
L 8.203125 64.703125 
L 16.9375 69.96875 
L 16.9375 51.859375 
L 25.78125 51.859375 
L 25.78125 45.015625 
L 16.9375 45.015625 
L 16.9375 14.703125 
Q 16.9375 10.9375 17.40625 9.859375 
Q 17.875 8.796875 18.921875 8.15625 
Q 19.96875 7.515625 21.921875 7.515625 
Q 23.390625 7.515625 25.78125 7.859375 
z
" id="ArialMT-74"/>
     </defs>
     <g style="fill:#262626;" transform="translate(10.109687 171.718008)rotate(-90)scale(0.165 -0.165)">
      <use xlink:href="#ArialMT-64"/>
      <use x="55.615234" xlink:href="#ArialMT-32"/>
      <use x="111.230469" xlink:href="#ArialMT-56"/>
      <use x="177.929688" xlink:href="#ArialMT-2f"/>
      <use x="205.712891" xlink:href="#ArialMT-64"/>
      <use x="261.328125" xlink:href="#ArialMT-74"/>
      <use x="289.111328" xlink:href="#ArialMT-32"/>
     </g>
    </g>
   </g>
   <g id="line2d_13">
    <path clip-path="url(#p217204247b)" d="M 69.218182 174.576952 
L 70.23612 131.470692 
L 71.254059 153.243965 
L 72.271998 209.529301 
L 73.289936 242.116364 
L 74.307875 213.969578 
L 75.325813 140.38924 
L 76.343752 76.074414 
L 77.36169 68.988178 
L 78.379629 119.887162 
L 79.397568 181.605441 
L 80.415506 198.698766 
L 81.433445 154.060084 
L 82.451383 83.245139 
L 83.469322 44.443636 
L 84.487261 69.389706 
L 85.505199 136.559382 
L 86.523138 189.230856 
L 87.541076 183.196293 
L 89.576953 61.963015 
L 90.594892 50.208067 
L 91.612831 99.419288 
L 92.630769 169.061146 
L 93.648708 201.429071 
L 94.666646 170.226799 
L 95.684585 102.693738 
L 96.702524 56.644645 
L 97.720462 71.760105 
L 99.756339 196.378089 
L 100.774278 202.43354 
L 101.792216 149.882104 
L 102.810155 83.582378 
L 103.828094 59.907113 
L 104.846032 99.263477 
L 105.863971 168.907159 
L 106.881909 210.525315 
L 107.899848 189.355767 
L 108.917787 123.470462 
L 109.935725 68.558352 
L 110.953664 71.024559 
L 111.971602 128.909048 
L 112.989541 193.541917 
L 114.007479 210.541019 
L 115.025418 165.620645 
L 116.043357 96.62777 
L 117.061295 61.668008 
L 118.079234 90.167977 
L 119.097172 158.092879 
L 120.115111 208.192975 
L 121.13305 198.225778 
L 123.168927 75.036168 
L 124.186865 65.470078 
L 125.204804 115.844965 
L 126.222742 183.680734 
L 127.240681 211.79239 
L 128.25862 176.456074 
L 129.276558 107.391482 
L 130.294497 62.730026 
L 131.312435 80.052486 
L 132.330374 144.735745 
L 133.348313 202.269488 
L 134.366251 204.168714 
L 135.38419 148.811281 
L 136.402128 82.804007 
L 137.420067 61.726783 
L 138.438005 103.318846 
L 139.455944 172.537263 
L 140.473883 211.07242 
L 141.491821 186.460455 
L 142.50976 119.426472 
L 143.527698 66.428102 
L 144.545637 72.102494 
L 146.581514 194.957306 
L 147.599453 208.661329 
L 148.617391 161.240447 
L 149.63533 92.63801 
L 150.653268 60.638395 
L 151.671207 92.196622 
L 152.689146 160.734751 
L 153.707084 208.527707 
L 154.725023 195.323533 
L 156.7609 72.427409 
L 157.778839 66.25281 
L 158.796777 118.925778 
L 159.814716 186.083439 
L 160.832654 211.162652 
L 161.850593 173.041662 
L 162.868531 103.830401 
L 163.88647 61.825133 
L 164.904409 82.407047 
L 165.922347 148.241607 
L 166.940286 203.879001 
L 167.958224 202.458063 
L 168.976163 145.176241 
L 169.994102 80.281008 
L 171.01204 62.432298 
L 172.029979 106.663904 
L 173.047917 175.720892 
L 174.065856 211.438495 
L 175.083794 183.732762 
L 176.101733 115.939517 
L 177.119672 65.159189 
L 178.13761 74.162655 
L 180.173487 197.220039 
L 181.191426 207.625683 
L 182.209365 157.81881 
L 183.227303 89.750294 
L 184.245242 60.752314 
L 185.26318 95.24896 
L 186.281119 164.184464 
L 187.299057 209.496125 
L 188.316996 193.018979 
L 190.352873 70.564774 
L 191.370812 67.727479 
L 192.38875 122.50898 
L 193.406689 188.768179 
L 194.424628 210.69661 
L 195.442566 169.824475 
L 196.460505 100.577247 
L 197.478443 61.280019 
L 198.496382 85.031777 
L 199.51432 151.827006 
L 200.532259 205.40582 
L 201.550198 200.640164 
L 203.586075 77.892507 
L 204.604013 63.297635 
L 205.621952 110.052275 
L 206.639891 178.776224 
L 207.657829 211.585096 
L 208.675768 180.844845 
L 209.693706 112.447184 
L 210.711645 64.001683 
L 211.729583 76.312727 
L 213.765461 199.287512 
L 214.783399 206.372824 
L 215.801338 154.299226 
L 216.819276 86.926956 
L 217.837215 61.001918 
L 218.855154 98.360098 
L 219.873092 167.535685 
L 220.891031 210.263904 
L 221.908969 190.555892 
L 222.926908 125.011203 
L 223.944846 68.836409 
L 224.962785 69.346082 
L 225.980724 126.110932 
L 226.998662 191.319423 
L 228.016601 210.04814 
L 229.034539 166.522385 
L 230.052478 97.402761 
L 231.070417 60.906919 
L 232.088355 87.774353 
L 233.106294 155.375324 
L 234.124232 206.77131 
L 235.142171 198.67281 
L 237.178048 75.642346 
L 238.195987 64.335722 
L 239.213925 113.504382 
L 240.231864 181.734853 
L 241.249802 211.558389 
L 242.267741 177.855411 
L 243.28568 109.013056 
L 244.303618 63.015431 
L 245.321557 78.605137 
L 247.357434 201.209664 
L 248.375372 204.957899 
L 249.393311 150.739036 
L 250.41125 84.2202 
L 251.429188 61.428471 
L 252.447127 101.560722 
L 253.465065 170.81461 
L 254.483004 210.859396 
L 255.500943 187.966403 
L 256.518881 121.417808 
L 257.53682 67.265741 
L 258.554758 71.121076 
L 260.590635 193.741913 
L 261.608574 209.227093 
L 262.626513 163.149341 
L 263.644451 94.318741 
L 264.66239 60.709507 
L 265.680328 90.629819 
L 266.698267 158.878579 
L 267.716206 207.971644 
L 268.734144 196.559207 
L 270.770021 73.533353 
L 271.78796 65.541391 
L 272.805898 117.009203 
L 273.823837 184.5868 
L 274.841776 211.355341 
L 275.859714 174.768382 
L 276.877653 105.642163 
L 277.895591 62.199888 
L 278.91353 81.031852 
L 279.931469 146.27638 
L 280.949407 202.979718 
L 281.967346 203.382122 
L 282.985284 147.144666 
L 284.003223 81.634683 
L 285.021161 62.029514 
L 286.0391 104.842086 
L 287.057039 174.012483 
L 288.074977 211.280298 
L 289.092916 185.255816 
L 290.110854 117.858785 
L 291.128793 65.855953 
L 292.146732 73.047954 
L 294.182609 196.029836 
L 295.200547 208.235295 
L 296.218486 159.71319 
L 297.236424 91.332419 
L 298.254363 60.688316 
L 299.272302 93.591606 
L 300.29024 162.328707 
L 301.308179 209.004165 
L 302.326117 194.304455 
L 304.361995 71.570616 
L 305.379933 66.911989 
L 306.397872 120.558717 
L 307.41581 187.32557 
L 308.433749 210.976568 
L 309.451687 171.5911 
L 310.469626 102.342509 
L 311.487565 61.557078 
L 312.505503 83.587305 
L 313.523442 149.8777 
L 314.54138 204.59361 
L 315.559319 201.649249 
L 317.595196 79.176485 
L 318.613135 62.803686 
L 319.631073 108.196559 
L 320.649012 177.12188 
L 321.66695 211.525648 
L 322.684889 182.430473 
L 323.702828 114.342458 
L 324.720766 64.610358 
L 325.738705 75.122219 
L 327.774582 198.177831 
L 328.792521 207.075058 
L 329.810459 156.221956 
L 330.828398 88.450766 
L 331.846336 60.843382 
L 332.864275 96.652782 
L 333.882213 165.717644 
L 334.900152 209.866449 
L 335.918091 191.913807 
L 336.936029 126.980764 
L 337.953968 69.758717 
L 338.971906 68.444306 
L 339.989845 124.144619 
L 341.007784 189.944746 
L 342.025722 210.422954 
L 343.043661 168.330991 
L 344.061599 99.121816 
L 345.079538 61.0885 
L 346.097476 86.265516 
L 347.115415 153.446916 
L 348.133354 206.047572 
L 349.151292 199.763321 
L 351.187169 76.851355 
L 352.205108 63.749174 
L 353.223047 111.616304 
L 354.240985 180.135519 
L 355.258924 211.594872 
L 356.276862 179.496976 
L 357.294801 110.877049 
L 358.312739 63.531859 
L 359.330678 77.339022 
L 361.366555 200.180878 
L 362.384494 205.749093 
L 363.402432 152.683807 
L 364.420371 85.680517 
L 365.43831 61.174347 
L 366.456248 99.806199 
L 367.474187 169.037477 
L 368.492125 210.556485 
L 369.510064 189.392849 
L 370.528002 123.372152 
L 371.545941 68.101891 
L 372.56388 70.134765 
L 373.581818 127.758534 
L 373.581818 127.758534 
" style="fill:none;stroke:#4c72b0;stroke-linecap:round;stroke-width:1.75;"/>
   </g>
   <g id="patch_3">
    <path d="M 54 252 
L 54 34.56 
" style="fill:none;stroke:#262626;stroke-linecap:square;stroke-linejoin:miter;stroke-width:1.25;"/>
   </g>
   <g id="patch_4">
    <path d="M 388.8 252 
L 388.8 34.56 
" style="fill:none;stroke:#262626;stroke-linecap:square;stroke-linejoin:miter;stroke-width:1.25;"/>
   </g>
   <g id="patch_5">
    <path d="M 54 252 
L 388.8 252 
" style="fill:none;stroke:#262626;stroke-linecap:square;stroke-linejoin:miter;stroke-width:1.25;"/>
   </g>
   <g id="patch_6">
    <path d="M 54 34.56 
L 388.8 34.56 
" style="fill:none;stroke:#262626;stroke-linecap:square;stroke-linejoin:miter;stroke-width:1.25;"/>
   </g>
  </g>
 </g>
 <defs>
  <clipPath id="p217204247b">
   <rect height="217.44" width="334.8" x="54" y="34.56"/>
  </clipPath>
 </defs>
</svg>
