<?xml version="1.0" encoding="utf-8" standalone="no"?>
<!DOCTYPE svg PUBLIC "-//W3C//DTD SVG 1.1//EN"
  "http://www.w3.org/Graphics/SVG/1.1/DTD/svg11.dtd">
<!-- Created with matplotlib (http://matplotlib.org/) -->
<svg height="288pt" version="1.1" viewBox="0 0 432 288" width="432pt" xmlns="http://www.w3.org/2000/svg" xmlns:xlink="http://www.w3.org/1999/xlink">
 <defs>
  <style type="text/css">
*{stroke-linecap:butt;stroke-linejoin:round;}
  </style>
 </defs>
 <g id="figure_1">
  <g id="patch_1">
   <path d="M 0 288 
L 432 288 
L 432 0 
L 0 0 
z
" style="fill:#ffffff;"/>
  </g>
  <g id="axes_1">
   <g id="patch_2">
    <path d="M 54 252 
L 388.8 252 
L 388.8 34.56 
L 54 34.56 
z
" style="fill:#ffffff;"/>
   </g>
   <g id="matplotlib.axis_1">
    <g id="xtick_1">
     <g id="line2d_1"/>
     <g id="text_1">
      <!-- 0 -->
      <defs>
       <path d="M 4.15625 35.296875 
Q 4.15625 48 6.765625 55.734375 
Q 9.375 63.484375 14.515625 67.671875 
Q 19.671875 71.875 27.484375 71.875 
Q 33.25 71.875 37.59375 69.546875 
Q 41.9375 67.234375 44.765625 62.859375 
Q 47.609375 58.5 49.21875 52.21875 
Q 50.828125 45.953125 50.828125 35.296875 
Q 50.828125 22.703125 48.234375 14.96875 
Q 45.65625 7.234375 40.5 3 
Q 35.359375 -1.21875 27.484375 -1.21875 
Q 17.140625 -1.21875 11.234375 6.203125 
Q 4.15625 15.140625 4.15625 35.296875 
z
M 13.1875 35.296875 
Q 13.1875 17.671875 17.3125 11.828125 
Q 21.4375 6 27.484375 6 
Q 33.546875 6 37.671875 11.859375 
Q 41.796875 17.71875 41.796875 35.296875 
Q 41.796875 52.984375 37.671875 58.78125 
Q 33.546875 64.59375 27.390625 64.59375 
Q 21.34375 64.59375 17.71875 59.46875 
Q 13.1875 52.9375 13.1875 35.296875 
z
" id="ArialMT-30"/>
      </defs>
      <g style="fill:#262626;" transform="translate(64.02954 269.736719)scale(0.15 -0.15)">
       <use xlink:href="#ArialMT-30"/>
      </g>
     </g>
    </g>
    <g id="xtick_2">
     <g id="line2d_2"/>
     <g id="text_2">
      <!-- 50 -->
      <defs>
       <path d="M 4.15625 18.75 
L 13.375 19.53125 
Q 14.40625 12.796875 18.140625 9.390625 
Q 21.875 6 27.15625 6 
Q 33.5 6 37.890625 10.78125 
Q 42.28125 15.578125 42.28125 23.484375 
Q 42.28125 31 38.0625 35.34375 
Q 33.84375 39.703125 27 39.703125 
Q 22.75 39.703125 19.328125 37.765625 
Q 15.921875 35.84375 13.96875 32.765625 
L 5.71875 33.84375 
L 12.640625 70.609375 
L 48.25 70.609375 
L 48.25 62.203125 
L 19.671875 62.203125 
L 15.828125 42.96875 
Q 22.265625 47.46875 29.34375 47.46875 
Q 38.71875 47.46875 45.15625 40.96875 
Q 51.609375 34.46875 51.609375 24.265625 
Q 51.609375 14.546875 45.953125 7.46875 
Q 39.0625 -1.21875 27.15625 -1.21875 
Q 17.390625 -1.21875 11.203125 4.25 
Q 5.03125 9.71875 4.15625 18.75 
z
" id="ArialMT-35"/>
      </defs>
      <g style="fill:#262626;" transform="translate(110.755766 269.736719)scale(0.15 -0.15)">
       <use xlink:href="#ArialMT-35"/>
       <use x="55.615234" xlink:href="#ArialMT-30"/>
      </g>
     </g>
    </g>
    <g id="xtick_3">
     <g id="line2d_3"/>
     <g id="text_3">
      <!-- 100 -->
      <defs>
       <path d="M 37.25 0 
L 28.46875 0 
L 28.46875 56 
Q 25.296875 52.984375 20.140625 49.953125 
Q 14.984375 46.921875 10.890625 45.40625 
L 10.890625 53.90625 
Q 18.265625 57.375 23.78125 62.296875 
Q 29.296875 67.234375 31.59375 71.875 
L 37.25 71.875 
z
" id="ArialMT-31"/>
      </defs>
      <g style="fill:#262626;" transform="translate(157.481992 269.736719)scale(0.15 -0.15)">
       <use xlink:href="#ArialMT-31"/>
       <use x="55.615234" xlink:href="#ArialMT-30"/>
       <use x="111.230469" xlink:href="#ArialMT-30"/>
      </g>
     </g>
    </g>
    <g id="xtick_4">
     <g id="line2d_4"/>
     <g id="text_4">
      <!-- 150 -->
      <g style="fill:#262626;" transform="translate(208.378921 269.736719)scale(0.15 -0.15)">
       <use xlink:href="#ArialMT-31"/>
       <use x="55.615234" xlink:href="#ArialMT-35"/>
       <use x="111.230469" xlink:href="#ArialMT-30"/>
      </g>
     </g>
    </g>
    <g id="xtick_5">
     <g id="line2d_5"/>
     <g id="text_5">
      <!-- 200 -->
      <defs>
       <path d="M 50.34375 8.453125 
L 50.34375 0 
L 3.03125 0 
Q 2.9375 3.171875 4.046875 6.109375 
Q 5.859375 10.9375 9.828125 15.625 
Q 13.8125 20.3125 21.34375 26.46875 
Q 33.015625 36.03125 37.109375 41.625 
Q 41.21875 47.21875 41.21875 52.203125 
Q 41.21875 57.421875 37.46875 61 
Q 33.734375 64.59375 27.734375 64.59375 
Q 21.390625 64.59375 17.578125 60.78125 
Q 13.765625 56.984375 13.71875 50.25 
L 4.6875 51.171875 
Q 5.609375 61.28125 11.65625 66.578125 
Q 17.71875 71.875 27.9375 71.875 
Q 38.234375 71.875 44.234375 66.15625 
Q 50.25 60.453125 50.25 52 
Q 50.25 47.703125 48.484375 43.546875 
Q 46.734375 39.40625 42.65625 34.8125 
Q 38.578125 30.21875 29.109375 22.21875 
Q 21.1875 15.578125 18.9375 13.203125 
Q 16.703125 10.84375 15.234375 8.453125 
z
" id="ArialMT-32"/>
      </defs>
      <g style="fill:#262626;" transform="translate(259.27585 269.736719)scale(0.15 -0.15)">
       <use xlink:href="#ArialMT-32"/>
       <use x="55.615234" xlink:href="#ArialMT-30"/>
       <use x="111.230469" xlink:href="#ArialMT-30"/>
      </g>
     </g>
    </g>
    <g id="xtick_6">
     <g id="line2d_6"/>
     <g id="text_6">
      <!-- 250 -->
      <g style="fill:#262626;" transform="translate(310.17278 269.736719)scale(0.15 -0.15)">
       <use xlink:href="#ArialMT-32"/>
       <use x="55.615234" xlink:href="#ArialMT-35"/>
       <use x="111.230469" xlink:href="#ArialMT-30"/>
      </g>
     </g>
    </g>
    <g id="xtick_7">
     <g id="line2d_7"/>
     <g id="text_7">
      <!-- 300 -->
      <defs>
       <path d="M 4.203125 18.890625 
L 12.984375 20.0625 
Q 14.5 12.59375 18.140625 9.296875 
Q 21.78125 6 27 6 
Q 33.203125 6 37.46875 10.296875 
Q 41.75 14.59375 41.75 20.953125 
Q 41.75 27 37.796875 30.921875 
Q 33.84375 34.859375 27.734375 34.859375 
Q 25.25 34.859375 21.53125 33.890625 
L 22.515625 41.609375 
Q 23.390625 41.5 23.921875 41.5 
Q 29.546875 41.5 34.03125 44.421875 
Q 38.53125 47.359375 38.53125 53.46875 
Q 38.53125 58.296875 35.25 61.46875 
Q 31.984375 64.65625 26.8125 64.65625 
Q 21.6875 64.65625 18.265625 61.421875 
Q 14.84375 58.203125 13.875 51.765625 
L 5.078125 53.328125 
Q 6.6875 62.15625 12.390625 67.015625 
Q 18.109375 71.875 26.609375 71.875 
Q 32.46875 71.875 37.390625 69.359375 
Q 42.328125 66.84375 44.9375 62.5 
Q 47.5625 58.15625 47.5625 53.265625 
Q 47.5625 48.640625 45.0625 44.828125 
Q 42.578125 41.015625 37.703125 38.765625 
Q 44.046875 37.3125 47.5625 32.6875 
Q 51.078125 28.078125 51.078125 21.140625 
Q 51.078125 11.765625 44.234375 5.25 
Q 37.40625 -1.265625 26.953125 -1.265625 
Q 17.53125 -1.265625 11.296875 4.34375 
Q 5.078125 9.96875 4.203125 18.890625 
z
" id="ArialMT-33"/>
      </defs>
      <g style="fill:#262626;" transform="translate(361.069709 269.736719)scale(0.15 -0.15)">
       <use xlink:href="#ArialMT-33"/>
       <use x="55.615234" xlink:href="#ArialMT-30"/>
       <use x="111.230469" xlink:href="#ArialMT-30"/>
      </g>
     </g>
    </g>
    <g id="text_8">
     <!-- Time -->
     <defs>
      <path d="M 25.921875 0 
L 25.921875 63.140625 
L 2.34375 63.140625 
L 2.34375 71.578125 
L 59.078125 71.578125 
L 59.078125 63.140625 
L 35.40625 63.140625 
L 35.40625 0 
z
" id="ArialMT-54"/>
      <path d="M 6.640625 61.46875 
L 6.640625 71.578125 
L 15.4375 71.578125 
L 15.4375 61.46875 
z
M 6.640625 0 
L 6.640625 51.859375 
L 15.4375 51.859375 
L 15.4375 0 
z
" id="ArialMT-69"/>
      <path d="M 6.59375 0 
L 6.59375 51.859375 
L 14.453125 51.859375 
L 14.453125 44.578125 
Q 16.890625 48.390625 20.9375 50.703125 
Q 25 53.03125 30.171875 53.03125 
Q 35.9375 53.03125 39.625 50.640625 
Q 43.3125 48.25 44.828125 43.953125 
Q 50.984375 53.03125 60.84375 53.03125 
Q 68.5625 53.03125 72.703125 48.75 
Q 76.859375 44.484375 76.859375 35.59375 
L 76.859375 0 
L 68.109375 0 
L 68.109375 32.671875 
Q 68.109375 37.9375 67.25 40.25 
Q 66.40625 42.578125 64.15625 43.984375 
Q 61.921875 45.40625 58.890625 45.40625 
Q 53.421875 45.40625 49.796875 41.765625 
Q 46.1875 38.140625 46.1875 30.125 
L 46.1875 0 
L 37.40625 0 
L 37.40625 33.6875 
Q 37.40625 39.546875 35.25 42.46875 
Q 33.109375 45.40625 28.21875 45.40625 
Q 24.515625 45.40625 21.359375 43.453125 
Q 18.21875 41.5 16.796875 37.734375 
Q 15.375 33.984375 15.375 26.90625 
L 15.375 0 
z
" id="ArialMT-6d"/>
      <path d="M 42.09375 16.703125 
L 51.171875 15.578125 
Q 49.03125 7.625 43.21875 3.21875 
Q 37.40625 -1.171875 28.375 -1.171875 
Q 17 -1.171875 10.328125 5.828125 
Q 3.65625 12.84375 3.65625 25.484375 
Q 3.65625 38.578125 10.390625 45.796875 
Q 17.140625 53.03125 27.875 53.03125 
Q 38.28125 53.03125 44.875 45.953125 
Q 51.46875 38.875 51.46875 26.03125 
Q 51.46875 25.25 51.421875 23.6875 
L 12.75 23.6875 
Q 13.234375 15.140625 17.578125 10.59375 
Q 21.921875 6.0625 28.421875 6.0625 
Q 33.25 6.0625 36.671875 8.59375 
Q 40.09375 11.140625 42.09375 16.703125 
z
M 13.234375 30.90625 
L 42.1875 30.90625 
Q 41.609375 37.453125 38.875 40.71875 
Q 34.671875 45.796875 27.984375 45.796875 
Q 21.921875 45.796875 17.796875 41.75 
Q 13.671875 37.703125 13.234375 30.90625 
z
" id="ArialMT-65"/>
     </defs>
     <g style="fill:#262626;" transform="translate(203.072109 288.528359)scale(0.165 -0.165)">
      <use xlink:href="#ArialMT-54"/>
      <use x="61.037109" xlink:href="#ArialMT-69"/>
      <use x="83.253906" xlink:href="#ArialMT-6d"/>
      <use x="166.554688" xlink:href="#ArialMT-65"/>
     </g>
    </g>
   </g>
   <g id="matplotlib.axis_2">
    <g id="ytick_1">
     <g id="line2d_8"/>
     <g id="text_9">
      <!-- −2 -->
      <defs>
       <path d="M 52.828125 31.203125 
L 5.5625 31.203125 
L 5.5625 39.40625 
L 52.828125 39.40625 
z
" id="ArialMT-2212"/>
      </defs>
      <g style="fill:#262626;" transform="translate(29.897656 210.622069)scale(0.15 -0.15)">
       <use xlink:href="#ArialMT-2212"/>
       <use x="58.398438" xlink:href="#ArialMT-32"/>
      </g>
     </g>
    </g>
    <g id="ytick_2">
     <g id="line2d_9"/>
     <g id="text_10">
      <!-- 0 -->
      <g style="fill:#262626;" transform="translate(38.658594 150.792748)scale(0.15 -0.15)">
       <use xlink:href="#ArialMT-30"/>
      </g>
     </g>
    </g>
    <g id="ytick_3">
     <g id="line2d_10"/>
     <g id="text_11">
      <!-- 2 -->
      <g style="fill:#262626;" transform="translate(38.658594 90.963427)scale(0.15 -0.15)">
       <use xlink:href="#ArialMT-32"/>
      </g>
     </g>
    </g>
    <g id="text_12">
     <!-- d2V/dt2 -->
     <defs>
      <path d="M 40.234375 0 
L 40.234375 6.546875 
Q 35.296875 -1.171875 25.734375 -1.171875 
Q 19.53125 -1.171875 14.328125 2.25 
Q 9.125 5.671875 6.265625 11.796875 
Q 3.421875 17.921875 3.421875 25.875 
Q 3.421875 33.640625 6 39.96875 
Q 8.59375 46.296875 13.765625 49.65625 
Q 18.953125 53.03125 25.34375 53.03125 
Q 30.03125 53.03125 33.6875 51.046875 
Q 37.359375 49.078125 39.65625 45.90625 
L 39.65625 71.578125 
L 48.390625 71.578125 
L 48.390625 0 
z
M 12.453125 25.875 
Q 12.453125 15.921875 16.640625 10.984375 
Q 20.84375 6.0625 26.5625 6.0625 
Q 32.328125 6.0625 36.34375 10.765625 
Q 40.375 15.484375 40.375 25.140625 
Q 40.375 35.796875 36.265625 40.765625 
Q 32.171875 45.75 26.171875 45.75 
Q 20.3125 45.75 16.375 40.96875 
Q 12.453125 36.1875 12.453125 25.875 
z
" id="ArialMT-64"/>
      <path d="M 28.171875 0 
L 0.4375 71.578125 
L 10.6875 71.578125 
L 29.296875 19.578125 
Q 31.546875 13.328125 33.0625 7.859375 
Q 34.71875 13.71875 36.921875 19.578125 
L 56.25 71.578125 
L 65.921875 71.578125 
L 37.890625 0 
z
" id="ArialMT-56"/>
      <path d="M 0 -1.21875 
L 20.75 72.796875 
L 27.78125 72.796875 
L 7.078125 -1.21875 
z
" id="ArialMT-2f"/>
      <path d="M 25.78125 7.859375 
L 27.046875 0.09375 
Q 23.34375 -0.6875 20.40625 -0.6875 
Q 15.625 -0.6875 12.984375 0.828125 
Q 10.359375 2.34375 9.28125 4.8125 
Q 8.203125 7.28125 8.203125 15.1875 
L 8.203125 45.015625 
L 1.765625 45.015625 
L 1.765625 51.859375 
L 8.203125 51.859375 
L 8.203125 64.703125 
L 16.9375 69.96875 
L 16.9375 51.859375 
L 25.78125 51.859375 
L 25.78125 45.015625 
L 16.9375 45.015625 
L 16.9375 14.703125 
Q 16.9375 10.9375 17.40625 9.859375 
Q 17.875 8.796875 18.921875 8.15625 
Q 19.96875 7.515625 21.921875 7.515625 
Q 23.390625 7.515625 25.78125 7.859375 
z
" id="ArialMT-74"/>
     </defs>
     <g style="fill:#262626;" transform="translate(22.618281 171.718008)rotate(-90)scale(0.165 -0.165)">
      <use xlink:href="#ArialMT-64"/>
      <use x="55.615234" xlink:href="#ArialMT-32"/>
      <use x="111.230469" xlink:href="#ArialMT-56"/>
      <use x="177.929688" xlink:href="#ArialMT-2f"/>
      <use x="205.712891" xlink:href="#ArialMT-64"/>
      <use x="261.328125" xlink:href="#ArialMT-74"/>
      <use x="289.111328" xlink:href="#ArialMT-32"/>
     </g>
    </g>
   </g>
   <g id="line2d_11">
    <path clip-path="url(#p7940573cfe)" d="M 69.218182 167.415552 
L 70.23612 153.471592 
L 71.254059 142.22902 
L 72.271998 136.153011 
L 73.289936 136.28446 
L 74.307875 142.078081 
L 77.36169 169.727762 
L 78.379629 172.409121 
L 79.397568 168.198641 
L 80.415506 156.890846 
L 81.433445 139.905157 
L 83.469322 101.175951 
L 84.487261 87.15265 
L 85.505199 81.396563 
L 86.523138 86.005279 
L 87.541076 101.293813 
L 88.559015 125.615831 
L 91.612831 213.023624 
L 92.630769 230.667283 
L 93.648708 235.870055 
L 94.666646 227.112503 
L 95.684585 205.163915 
L 96.702524 173.036542 
L 98.738401 98.552774 
L 99.756339 67.989425 
L 100.774278 48.873697 
L 101.792216 44.443636 
L 102.810155 55.587525 
L 103.828094 80.663871 
L 104.846032 115.748107 
L 106.881909 192.920341 
L 107.899848 222.718215 
L 108.917787 239.982602 
L 109.935725 242.116364 
L 110.953664 229.02368 
L 111.971602 203.10538 
L 115.025418 98.59767 
L 116.043357 74.072705 
L 117.061295 62.14652 
L 118.079234 64.357581 
L 119.097172 79.817388 
L 120.115111 105.417085 
L 122.150988 167.28986 
L 123.168927 192.729146 
L 124.186865 208.540463 
L 125.204804 212.363604 
L 126.222742 204.038521 
L 127.240681 185.576945 
L 130.294497 111.347424 
L 131.312435 95.908617 
L 132.330374 90.712755 
L 133.348313 96.458584 
L 134.366251 111.774659 
L 137.420067 178.542152 
L 138.438005 193.017915 
L 139.455944 197.904795 
L 140.473883 192.197949 
L 141.491821 176.920001 
L 142.50976 154.932727 
L 144.545637 108.044787 
L 145.563576 92.206303 
L 146.581514 86.085519 
L 147.599453 91.103005 
L 148.617391 106.61834 
L 149.63533 130.020355 
L 151.671207 183.191075 
L 152.689146 203.250351 
L 153.707084 213.54393 
L 154.725023 211.95291 
L 155.742961 198.464563 
L 156.7609 175.206666 
L 159.814716 90.662702 
L 160.832654 74.149082 
L 161.850593 69.650784 
L 162.868531 78.120977 
L 163.88647 98.247613 
L 164.904409 126.66469 
L 166.940286 188.360312 
L 167.958224 211.001981 
L 168.976163 222.524448 
L 169.994102 220.919282 
L 171.01204 206.455606 
L 172.029979 181.6367 
L 175.083794 92.345017 
L 176.101733 74.860727 
L 177.119672 69.684984 
L 178.13761 77.610984 
L 179.155549 97.139275 
L 180.173487 124.75256 
L 182.209365 184.095923 
L 183.227303 205.425531 
L 184.245242 215.874238 
L 185.26318 213.738651 
L 186.281119 199.559054 
L 187.299057 176.006496 
L 189.334935 118.884882 
L 190.352873 95.586877 
L 191.370812 81.61812 
L 192.38875 79.388027 
L 193.406689 89.174751 
L 194.424628 109.089213 
L 197.478443 187.764198 
L 198.496382 204.231004 
L 199.51432 209.783158 
L 200.532259 203.44664 
L 201.550198 186.413717 
L 202.568136 161.821953 
L 204.604013 108.557946 
L 205.621952 89.648048 
L 206.639891 80.932194 
L 207.657829 84.039505 
L 208.675768 98.450437 
L 209.693706 121.58718 
L 211.729583 176.500689 
L 212.747522 198.305031 
L 213.765461 210.692668 
L 214.783399 211.351295 
L 215.801338 200.076987 
L 216.819276 178.819425 
L 219.873092 97.585133 
L 220.891031 80.98172 
L 221.908969 75.758623 
L 222.926908 82.922283 
L 223.944846 101.267454 
L 224.962785 127.584651 
L 226.998662 184.936061 
L 228.016601 205.778534 
L 229.034539 216.027894 
L 230.052478 213.831823 
L 231.070417 199.54662 
L 232.088355 175.678061 
L 234.124232 117.000605 
L 235.142171 92.575434 
L 236.160109 77.48778 
L 237.178048 74.40523 
L 238.195987 83.863707 
L 239.213925 104.172475 
L 242.267741 188.513938 
L 243.28568 207.69698 
L 244.303618 215.76376 
L 245.321557 211.316155 
L 246.339495 195.18671 
L 247.357434 170.286166 
L 249.393311 112.790673 
L 250.41125 90.459977 
L 251.429188 78.053091 
L 252.447127 77.750493 
L 253.465065 89.562524 
L 254.483004 111.332209 
L 257.53682 192.603742 
L 258.554758 208.697977 
L 259.572697 213.353807 
L 260.590635 205.760693 
L 261.608574 187.30955 
L 263.644451 132.5388 
L 264.66239 106.096036 
L 265.680328 86.773121 
L 266.698267 78.04729 
L 267.716206 81.487557 
L 268.734144 96.473491 
L 269.752083 120.307184 
L 271.78796 176.534924 
L 272.805898 198.802306 
L 273.823837 211.483913 
L 274.841776 212.2838 
L 275.859714 201.040202 
L 276.877653 179.756193 
L 279.931469 98.498887 
L 280.949407 81.929929 
L 281.967346 76.715434 
L 282.985284 83.813832 
L 284.003223 101.976699 
L 285.021161 127.97002 
L 287.057039 184.301069 
L 288.074977 204.554878 
L 289.092916 214.277295 
L 290.110854 211.71289 
L 291.128793 197.302577 
L 292.146732 173.606731 
L 294.182609 116.161371 
L 295.200547 92.66815 
L 296.218486 78.568276 
L 297.236424 76.384659 
L 298.254363 86.512234 
L 299.272302 107.146588 
L 302.326117 190.050179 
L 303.344056 208.138805 
L 304.361995 215.028625 
L 305.379933 209.495177 
L 306.397872 192.534041 
L 307.41581 167.182262 
L 309.451687 110.132648 
L 310.469626 88.629945 
L 311.487565 77.303621 
L 312.505503 78.168271 
L 313.523442 91.056716 
L 314.54138 113.65118 
L 316.577258 170.740194 
L 317.595196 195.011099 
L 318.613135 210.37128 
L 319.631073 214.078759 
L 320.649012 205.480284 
L 321.66695 186.127127 
L 324.720766 103.959129 
L 325.738705 85.009472 
L 326.756643 76.910379 
L 327.774582 81.109257 
L 328.792521 96.848327 
L 329.810459 121.301046 
L 331.846336 178.019816 
L 332.864275 200.110616 
L 333.882213 212.388621 
L 334.900152 212.650442 
L 335.918091 200.847262 
L 336.936029 179.093685 
L 339.989845 97.657543 
L 341.007784 81.450267 
L 342.025722 76.705847 
L 343.043661 84.280551 
L 344.061599 102.822913 
L 345.079538 129.015298 
L 347.115415 185.058099 
L 348.133354 204.867019 
L 349.151292 214.041932 
L 350.169231 210.93361 
L 351.187169 196.092246 
L 352.205108 172.169614 
L 354.240985 115.058382 
L 355.258924 92.092169 
L 356.276862 78.659234 
L 357.294801 77.167253 
L 358.312739 87.88704 
L 359.330678 108.903612 
L 362.384494 191.17779 
L 363.402432 208.551204 
L 364.420371 214.633918 
L 365.43831 208.337329 
L 366.456248 190.788151 
L 367.474187 165.126793 
L 369.510064 108.465268 
L 370.528002 87.603517 
L 371.545941 77.091754 
L 372.56388 78.808885 
L 373.581818 92.444858 
L 373.581818 92.444858 
" style="fill:none;stroke:#4c72b0;stroke-linecap:round;stroke-width:1.75;"/>
   </g>
   <g id="patch_3">
    <path d="M 54 252 
L 54 34.56 
" style="fill:none;stroke:#262626;stroke-linecap:square;stroke-linejoin:miter;stroke-width:1.25;"/>
   </g>
   <g id="patch_4">
    <path d="M 388.8 252 
L 388.8 34.56 
" style="fill:none;stroke:#262626;stroke-linecap:square;stroke-linejoin:miter;stroke-width:1.25;"/>
   </g>
   <g id="patch_5">
    <path d="M 54 252 
L 388.8 252 
" style="fill:none;stroke:#262626;stroke-linecap:square;stroke-linejoin:miter;stroke-width:1.25;"/>
   </g>
   <g id="patch_6">
    <path d="M 54 34.56 
L 388.8 34.56 
" style="fill:none;stroke:#262626;stroke-linecap:square;stroke-linejoin:miter;stroke-width:1.25;"/>
   </g>
  </g>
 </g>
 <defs>
  <clipPath id="p7940573cfe">
   <rect height="217.44" width="334.8" x="54" y="34.56"/>
  </clipPath>
 </defs>
</svg>
