<?xml version="1.0" encoding="utf-8" standalone="no"?>
<!DOCTYPE svg PUBLIC "-//W3C//DTD SVG 1.1//EN"
  "http://www.w3.org/Graphics/SVG/1.1/DTD/svg11.dtd">
<!-- Created with matplotlib (http://matplotlib.org/) -->
<svg height="288pt" version="1.1" viewBox="0 0 432 288" width="432pt" xmlns="http://www.w3.org/2000/svg" xmlns:xlink="http://www.w3.org/1999/xlink">
 <defs>
  <style type="text/css">
*{stroke-linecap:butt;stroke-linejoin:round;}
  </style>
 </defs>
 <g id="figure_1">
  <g id="patch_1">
   <path d="M 0 288 
L 432 288 
L 432 0 
L 0 0 
z
" style="fill:#ffffff;"/>
  </g>
  <g id="axes_1">
   <g id="patch_2">
    <path d="M 54 252 
L 388.8 252 
L 388.8 34.56 
L 54 34.56 
z
" style="fill:#ffffff;"/>
   </g>
   <g id="matplotlib.axis_1">
    <g id="xtick_1">
     <g id="line2d_1"/>
     <g id="text_1">
      <!-- 0 -->
      <defs>
       <path d="M 4.15625 35.296875 
Q 4.15625 48 6.765625 55.734375 
Q 9.375 63.484375 14.515625 67.671875 
Q 19.671875 71.875 27.484375 71.875 
Q 33.25 71.875 37.59375 69.546875 
Q 41.9375 67.234375 44.765625 62.859375 
Q 47.609375 58.5 49.21875 52.21875 
Q 50.828125 45.953125 50.828125 35.296875 
Q 50.828125 22.703125 48.234375 14.96875 
Q 45.65625 7.234375 40.5 3 
Q 35.359375 -1.21875 27.484375 -1.21875 
Q 17.140625 -1.21875 11.234375 6.203125 
Q 4.15625 15.140625 4.15625 35.296875 
z
M 13.1875 35.296875 
Q 13.1875 17.671875 17.3125 11.828125 
Q 21.4375 6 27.484375 6 
Q 33.546875 6 37.671875 11.859375 
Q 41.796875 17.71875 41.796875 35.296875 
Q 41.796875 52.984375 37.671875 58.78125 
Q 33.546875 64.59375 27.390625 64.59375 
Q 21.34375 64.59375 17.71875 59.46875 
Q 13.1875 52.9375 13.1875 35.296875 
z
" id="ArialMT-30"/>
      </defs>
      <g style="fill:#262626;" transform="translate(65.047479 269.736719)scale(0.15 -0.15)">
       <use xlink:href="#ArialMT-30"/>
      </g>
     </g>
    </g>
    <g id="xtick_2">
     <g id="line2d_2"/>
     <g id="text_2">
      <!-- 50 -->
      <defs>
       <path d="M 4.15625 18.75 
L 13.375 19.53125 
Q 14.40625 12.796875 18.140625 9.390625 
Q 21.875 6 27.15625 6 
Q 33.5 6 37.890625 10.78125 
Q 42.28125 15.578125 42.28125 23.484375 
Q 42.28125 31 38.0625 35.34375 
Q 33.84375 39.703125 27 39.703125 
Q 22.75 39.703125 19.328125 37.765625 
Q 15.921875 35.84375 13.96875 32.765625 
L 5.71875 33.84375 
L 12.640625 70.609375 
L 48.25 70.609375 
L 48.25 62.203125 
L 19.671875 62.203125 
L 15.828125 42.96875 
Q 22.265625 47.46875 29.34375 47.46875 
Q 38.71875 47.46875 45.15625 40.96875 
Q 51.609375 34.46875 51.609375 24.265625 
Q 51.609375 14.546875 45.953125 7.46875 
Q 39.0625 -1.21875 27.15625 -1.21875 
Q 17.390625 -1.21875 11.203125 4.25 
Q 5.03125 9.71875 4.15625 18.75 
z
" id="ArialMT-35"/>
      </defs>
      <g style="fill:#262626;" transform="translate(111.604048 269.736719)scale(0.15 -0.15)">
       <use xlink:href="#ArialMT-35"/>
       <use x="55.615234" xlink:href="#ArialMT-30"/>
      </g>
     </g>
    </g>
    <g id="xtick_3">
     <g id="line2d_3"/>
     <g id="text_3">
      <!-- 100 -->
      <defs>
       <path d="M 37.25 0 
L 28.46875 0 
L 28.46875 56 
Q 25.296875 52.984375 20.140625 49.953125 
Q 14.984375 46.921875 10.890625 45.40625 
L 10.890625 53.90625 
Q 18.265625 57.375 23.78125 62.296875 
Q 29.296875 67.234375 31.59375 71.875 
L 37.25 71.875 
z
" id="ArialMT-31"/>
      </defs>
      <g style="fill:#262626;" transform="translate(158.160618 269.736719)scale(0.15 -0.15)">
       <use xlink:href="#ArialMT-31"/>
       <use x="55.615234" xlink:href="#ArialMT-30"/>
       <use x="111.230469" xlink:href="#ArialMT-30"/>
      </g>
     </g>
    </g>
    <g id="xtick_4">
     <g id="line2d_4"/>
     <g id="text_4">
      <!-- 150 -->
      <g style="fill:#262626;" transform="translate(208.887891 269.736719)scale(0.15 -0.15)">
       <use xlink:href="#ArialMT-31"/>
       <use x="55.615234" xlink:href="#ArialMT-35"/>
       <use x="111.230469" xlink:href="#ArialMT-30"/>
      </g>
     </g>
    </g>
    <g id="xtick_5">
     <g id="line2d_5"/>
     <g id="text_5">
      <!-- 200 -->
      <defs>
       <path d="M 50.34375 8.453125 
L 50.34375 0 
L 3.03125 0 
Q 2.9375 3.171875 4.046875 6.109375 
Q 5.859375 10.9375 9.828125 15.625 
Q 13.8125 20.3125 21.34375 26.46875 
Q 33.015625 36.03125 37.109375 41.625 
Q 41.21875 47.21875 41.21875 52.203125 
Q 41.21875 57.421875 37.46875 61 
Q 33.734375 64.59375 27.734375 64.59375 
Q 21.390625 64.59375 17.578125 60.78125 
Q 13.765625 56.984375 13.71875 50.25 
L 4.6875 51.171875 
Q 5.609375 61.28125 11.65625 66.578125 
Q 17.71875 71.875 27.9375 71.875 
Q 38.234375 71.875 44.234375 66.15625 
Q 50.25 60.453125 50.25 52 
Q 50.25 47.703125 48.484375 43.546875 
Q 46.734375 39.40625 42.65625 34.8125 
Q 38.578125 30.21875 29.109375 22.21875 
Q 21.1875 15.578125 18.9375 13.203125 
Q 16.703125 10.84375 15.234375 8.453125 
z
" id="ArialMT-32"/>
      </defs>
      <g style="fill:#262626;" transform="translate(259.615163 269.736719)scale(0.15 -0.15)">
       <use xlink:href="#ArialMT-32"/>
       <use x="55.615234" xlink:href="#ArialMT-30"/>
       <use x="111.230469" xlink:href="#ArialMT-30"/>
      </g>
     </g>
    </g>
    <g id="xtick_6">
     <g id="line2d_6"/>
     <g id="text_6">
      <!-- 250 -->
      <g style="fill:#262626;" transform="translate(310.342436 269.736719)scale(0.15 -0.15)">
       <use xlink:href="#ArialMT-32"/>
       <use x="55.615234" xlink:href="#ArialMT-35"/>
       <use x="111.230469" xlink:href="#ArialMT-30"/>
      </g>
     </g>
    </g>
    <g id="xtick_7">
     <g id="line2d_7"/>
     <g id="text_7">
      <!-- 300 -->
      <defs>
       <path d="M 4.203125 18.890625 
L 12.984375 20.0625 
Q 14.5 12.59375 18.140625 9.296875 
Q 21.78125 6 27 6 
Q 33.203125 6 37.46875 10.296875 
Q 41.75 14.59375 41.75 20.953125 
Q 41.75 27 37.796875 30.921875 
Q 33.84375 34.859375 27.734375 34.859375 
Q 25.25 34.859375 21.53125 33.890625 
L 22.515625 41.609375 
Q 23.390625 41.5 23.921875 41.5 
Q 29.546875 41.5 34.03125 44.421875 
Q 38.53125 47.359375 38.53125 53.46875 
Q 38.53125 58.296875 35.25 61.46875 
Q 31.984375 64.65625 26.8125 64.65625 
Q 21.6875 64.65625 18.265625 61.421875 
Q 14.84375 58.203125 13.875 51.765625 
L 5.078125 53.328125 
Q 6.6875 62.15625 12.390625 67.015625 
Q 18.109375 71.875 26.609375 71.875 
Q 32.46875 71.875 37.390625 69.359375 
Q 42.328125 66.84375 44.9375 62.5 
Q 47.5625 58.15625 47.5625 53.265625 
Q 47.5625 48.640625 45.0625 44.828125 
Q 42.578125 41.015625 37.703125 38.765625 
Q 44.046875 37.3125 47.5625 32.6875 
Q 51.078125 28.078125 51.078125 21.140625 
Q 51.078125 11.765625 44.234375 5.25 
Q 37.40625 -1.265625 26.953125 -1.265625 
Q 17.53125 -1.265625 11.296875 4.34375 
Q 5.078125 9.96875 4.203125 18.890625 
z
" id="ArialMT-33"/>
      </defs>
      <g style="fill:#262626;" transform="translate(361.069709 269.736719)scale(0.15 -0.15)">
       <use xlink:href="#ArialMT-33"/>
       <use x="55.615234" xlink:href="#ArialMT-30"/>
       <use x="111.230469" xlink:href="#ArialMT-30"/>
      </g>
     </g>
    </g>
    <g id="text_8">
     <!-- Time -->
     <defs>
      <path d="M 25.921875 0 
L 25.921875 63.140625 
L 2.34375 63.140625 
L 2.34375 71.578125 
L 59.078125 71.578125 
L 59.078125 63.140625 
L 35.40625 63.140625 
L 35.40625 0 
z
" id="ArialMT-54"/>
      <path d="M 6.640625 61.46875 
L 6.640625 71.578125 
L 15.4375 71.578125 
L 15.4375 61.46875 
z
M 6.640625 0 
L 6.640625 51.859375 
L 15.4375 51.859375 
L 15.4375 0 
z
" id="ArialMT-69"/>
      <path d="M 6.59375 0 
L 6.59375 51.859375 
L 14.453125 51.859375 
L 14.453125 44.578125 
Q 16.890625 48.390625 20.9375 50.703125 
Q 25 53.03125 30.171875 53.03125 
Q 35.9375 53.03125 39.625 50.640625 
Q 43.3125 48.25 44.828125 43.953125 
Q 50.984375 53.03125 60.84375 53.03125 
Q 68.5625 53.03125 72.703125 48.75 
Q 76.859375 44.484375 76.859375 35.59375 
L 76.859375 0 
L 68.109375 0 
L 68.109375 32.671875 
Q 68.109375 37.9375 67.25 40.25 
Q 66.40625 42.578125 64.15625 43.984375 
Q 61.921875 45.40625 58.890625 45.40625 
Q 53.421875 45.40625 49.796875 41.765625 
Q 46.1875 38.140625 46.1875 30.125 
L 46.1875 0 
L 37.40625 0 
L 37.40625 33.6875 
Q 37.40625 39.546875 35.25 42.46875 
Q 33.109375 45.40625 28.21875 45.40625 
Q 24.515625 45.40625 21.359375 43.453125 
Q 18.21875 41.5 16.796875 37.734375 
Q 15.375 33.984375 15.375 26.90625 
L 15.375 0 
z
" id="ArialMT-6d"/>
      <path d="M 42.09375 16.703125 
L 51.171875 15.578125 
Q 49.03125 7.625 43.21875 3.21875 
Q 37.40625 -1.171875 28.375 -1.171875 
Q 17 -1.171875 10.328125 5.828125 
Q 3.65625 12.84375 3.65625 25.484375 
Q 3.65625 38.578125 10.390625 45.796875 
Q 17.140625 53.03125 27.875 53.03125 
Q 38.28125 53.03125 44.875 45.953125 
Q 51.46875 38.875 51.46875 26.03125 
Q 51.46875 25.25 51.421875 23.6875 
L 12.75 23.6875 
Q 13.234375 15.140625 17.578125 10.59375 
Q 21.921875 6.0625 28.421875 6.0625 
Q 33.25 6.0625 36.671875 8.59375 
Q 40.09375 11.140625 42.09375 16.703125 
z
M 13.234375 30.90625 
L 42.1875 30.90625 
Q 41.609375 37.453125 38.875 40.71875 
Q 34.671875 45.796875 27.984375 45.796875 
Q 21.921875 45.796875 17.796875 41.75 
Q 13.671875 37.703125 13.234375 30.90625 
z
" id="ArialMT-65"/>
     </defs>
     <g style="fill:#262626;" transform="translate(203.072109 288.528359)scale(0.165 -0.165)">
      <use xlink:href="#ArialMT-54"/>
      <use x="61.037109" xlink:href="#ArialMT-69"/>
      <use x="83.253906" xlink:href="#ArialMT-6d"/>
      <use x="166.554688" xlink:href="#ArialMT-65"/>
     </g>
    </g>
   </g>
   <g id="matplotlib.axis_2">
    <g id="ytick_1">
     <g id="line2d_8"/>
     <g id="text_9">
      <!-- −5 -->
      <defs>
       <path d="M 52.828125 31.203125 
L 5.5625 31.203125 
L 5.5625 39.40625 
L 52.828125 39.40625 
z
" id="ArialMT-2212"/>
      </defs>
      <g style="fill:#262626;" transform="translate(29.897656 206.768612)scale(0.15 -0.15)">
       <use xlink:href="#ArialMT-2212"/>
       <use x="58.398438" xlink:href="#ArialMT-35"/>
      </g>
     </g>
    </g>
    <g id="ytick_2">
     <g id="line2d_9"/>
     <g id="text_10">
      <!-- 0 -->
      <g style="fill:#262626;" transform="translate(38.658594 149.467854)scale(0.15 -0.15)">
       <use xlink:href="#ArialMT-30"/>
      </g>
     </g>
    </g>
    <g id="ytick_3">
     <g id="line2d_10"/>
     <g id="text_11">
      <!-- 5 -->
      <g style="fill:#262626;" transform="translate(38.658594 92.167097)scale(0.15 -0.15)">
       <use xlink:href="#ArialMT-35"/>
      </g>
     </g>
    </g>
    <g id="text_12">
     <!-- dV/dt -->
     <defs>
      <path d="M 40.234375 0 
L 40.234375 6.546875 
Q 35.296875 -1.171875 25.734375 -1.171875 
Q 19.53125 -1.171875 14.328125 2.25 
Q 9.125 5.671875 6.265625 11.796875 
Q 3.421875 17.921875 3.421875 25.875 
Q 3.421875 33.640625 6 39.96875 
Q 8.59375 46.296875 13.765625 49.65625 
Q 18.953125 53.03125 25.34375 53.03125 
Q 30.03125 53.03125 33.6875 51.046875 
Q 37.359375 49.078125 39.65625 45.90625 
L 39.65625 71.578125 
L 48.390625 71.578125 
L 48.390625 0 
z
M 12.453125 25.875 
Q 12.453125 15.921875 16.640625 10.984375 
Q 20.84375 6.0625 26.5625 6.0625 
Q 32.328125 6.0625 36.34375 10.765625 
Q 40.375 15.484375 40.375 25.140625 
Q 40.375 35.796875 36.265625 40.765625 
Q 32.171875 45.75 26.171875 45.75 
Q 20.3125 45.75 16.375 40.96875 
Q 12.453125 36.1875 12.453125 25.875 
z
" id="ArialMT-64"/>
      <path d="M 28.171875 0 
L 0.4375 71.578125 
L 10.6875 71.578125 
L 29.296875 19.578125 
Q 31.546875 13.328125 33.0625 7.859375 
Q 34.71875 13.71875 36.921875 19.578125 
L 56.25 71.578125 
L 65.921875 71.578125 
L 37.890625 0 
z
" id="ArialMT-56"/>
      <path d="M 0 -1.21875 
L 20.75 72.796875 
L 27.78125 72.796875 
L 7.078125 -1.21875 
z
" id="ArialMT-2f"/>
      <path d="M 25.78125 7.859375 
L 27.046875 0.09375 
Q 23.34375 -0.6875 20.40625 -0.6875 
Q 15.625 -0.6875 12.984375 0.828125 
Q 10.359375 2.34375 9.28125 4.8125 
Q 8.203125 7.28125 8.203125 15.1875 
L 8.203125 45.015625 
L 1.765625 45.015625 
L 1.765625 51.859375 
L 8.203125 51.859375 
L 8.203125 64.703125 
L 16.9375 69.96875 
L 16.9375 51.859375 
L 25.78125 51.859375 
L 25.78125 45.015625 
L 16.9375 45.015625 
L 16.9375 14.703125 
Q 16.9375 10.9375 17.40625 9.859375 
Q 17.875 8.796875 18.921875 8.15625 
Q 19.96875 7.515625 21.921875 7.515625 
Q 23.390625 7.515625 25.78125 7.859375 
z
" id="ArialMT-74"/>
     </defs>
     <g style="fill:#262626;" transform="translate(22.618281 162.542461)rotate(-90)scale(0.165 -0.165)">
      <use xlink:href="#ArialMT-64"/>
      <use x="55.615234" xlink:href="#ArialMT-56"/>
      <use x="122.314453" xlink:href="#ArialMT-2f"/>
      <use x="150.097656" xlink:href="#ArialMT-64"/>
      <use x="205.712891" xlink:href="#ArialMT-74"/>
     </g>
    </g>
   </g>
   <g id="line2d_11">
    <path clip-path="url(#p5fc3f735bb)" d="M 69.218182 144.099495 
L 70.232727 152.524195 
L 71.247273 155.607037 
L 72.261818 154.382908 
L 74.290909 147.329631 
L 75.305455 146.047678 
L 76.32 148.403307 
L 77.334545 154.698921 
L 78.349091 164.009417 
L 79.363636 174.347128 
L 80.378182 183.071826 
L 81.392727 187.464567 
L 82.407273 185.350177 
L 83.421818 175.641357 
L 84.436364 158.69001 
L 86.465455 111.83768 
L 87.48 89.074527 
L 88.494545 72.168331 
L 89.509091 64.579775 
L 90.523636 68.457326 
L 91.538182 84.1558 
L 92.552727 110.052717 
L 95.596364 208.652388 
L 96.610909 231.538291 
L 97.625455 242.116364 
L 98.64 238.332403 
L 99.654545 220.37613 
L 100.669091 190.711196 
L 103.712727 80.621885 
L 104.727273 55.812466 
L 105.741818 44.443636 
L 106.756364 48.214585 
L 107.770909 66.410038 
L 108.785455 96.020902 
L 111.829091 201.314314 
L 112.843636 223.411603 
L 113.858182 232.378991 
L 114.872727 227.224936 
L 115.887273 209.285862 
L 116.901818 181.951402 
L 118.930909 118.991807 
L 119.945455 93.858105 
L 120.96 78.531514 
L 121.974545 75.079636 
L 122.989091 83.456185 
L 124.003636 101.578392 
L 127.047273 173.85667 
L 128.061818 189.238906 
L 129.076364 195.109187 
L 130.090909 190.868779 
L 131.105455 177.81407 
L 134.149091 119.126545 
L 135.163636 106.235507 
L 136.178182 101.669309 
L 137.192727 106.226854 
L 138.207273 118.914098 
L 141.250909 175.170612 
L 142.265455 187.236418 
L 143.28 190.879012 
L 144.294545 185.125731 
L 145.309091 170.805799 
L 146.323636 150.418226 
L 148.352727 106.875571 
L 149.367273 92.009175 
L 150.381818 86.107969 
L 151.396364 90.611781 
L 152.410909 105.080003 
L 153.425455 127.23283 
L 155.454545 178.815805 
L 156.469091 199.135221 
L 157.483636 210.544657 
L 158.498182 210.802029 
L 159.512727 199.591909 
L 160.527273 178.612991 
L 163.570909 96.495726 
L 164.585455 78.422547 
L 165.6 71.235803 
L 166.614545 76.256022 
L 167.629091 92.704552 
L 168.643636 117.826987 
L 170.672727 176.285323 
L 171.687273 199.666067 
L 172.701818 213.538815 
L 173.716364 215.584202 
L 174.730909 205.530752 
L 175.745455 185.19632 
L 178.789091 103.169408 
L 179.803636 84.671631 
L 180.818182 76.75236 
L 181.832727 80.629644 
L 182.847273 95.444509 
L 183.861818 118.430635 
L 185.890909 171.590448 
L 186.905455 192.329158 
L 187.92 204.045004 
L 188.934545 204.798673 
L 189.949091 194.631525 
L 190.963636 175.539032 
L 194.007273 104.248048 
L 195.021818 90.32823 
L 196.036364 86.49878 
L 197.050909 93.366891 
L 198.065455 109.587053 
L 201.109091 178.999097 
L 202.123636 194.701896 
L 203.138182 200.983718 
L 204.152727 196.676823 
L 205.167273 182.553479 
L 206.181818 161.185852 
L 208.210909 112.962995 
L 209.225455 94.967517 
L 210.24 85.835606 
L 211.254545 87.311263 
L 212.269091 99.216433 
L 213.283636 119.474733 
L 215.312727 169.734928 
L 216.327273 190.672056 
L 217.341818 203.465521 
L 218.356364 205.731511 
L 219.370909 196.964236 
L 220.385455 178.637265 
L 223.429091 103.316785 
L 224.443636 86.400492 
L 225.458182 79.566181 
L 226.472727 84.087716 
L 227.487273 99.224433 
L 228.501818 122.345793 
L 230.530909 175.600164 
L 231.545455 196.334111 
L 232.56 207.924135 
L 233.574545 208.312734 
L 234.589091 197.42373 
L 235.603636 177.177569 
L 238.647273 100.360755 
L 239.661818 84.557361 
L 240.676364 79.305684 
L 241.690909 85.501591 
L 242.705455 102.008974 
L 243.72 125.865281 
L 245.749091 178.054724 
L 246.763636 197.118411 
L 247.778182 206.642829 
L 248.792727 204.978677 
L 249.807273 192.476869 
L 250.821818 171.420287 
L 252.850909 119.685173 
L 253.865455 98.284781 
L 254.88 85.224244 
L 255.894545 82.811297 
L 256.909091 91.43721 
L 257.923636 109.511376 
L 260.967273 182.889093 
L 261.981818 198.935081 
L 262.996364 205.032299 
L 264.010909 200.095896 
L 265.025455 185.029408 
L 266.04 162.560411 
L 268.069091 112.254724 
L 269.083636 93.501888 
L 270.098182 83.879617 
L 271.112727 85.133828 
L 272.127273 97.052112 
L 273.141818 117.500916 
L 275.170909 168.421471 
L 276.185455 189.727601 
L 277.2 202.879938 
L 278.214545 205.491634 
L 279.229091 197.066189 
L 280.243636 179.089273 
L 283.287273 104.840143 
L 284.301818 88.195558 
L 285.316364 81.50888 
L 286.330909 86.001495 
L 287.345455 100.89495 
L 288.36 123.547534 
L 290.389091 175.319507 
L 291.403636 195.193772 
L 292.418182 205.990282 
L 293.432727 205.769802 
L 294.447273 194.559291 
L 295.461818 174.348649 
L 298.505455 99.718714 
L 299.52 85.054687 
L 300.534545 80.910187 
L 301.549091 88.022119 
L 302.563636 105.118028 
L 303.578182 129.143596 
L 305.607273 180.353805 
L 306.621818 198.401269 
L 307.636364 206.736598 
L 308.650909 203.882659 
L 309.665455 190.362576 
L 310.68 168.604919 
L 312.709091 116.742735 
L 313.723636 95.914761 
L 314.738182 83.742609 
L 315.752727 82.392155 
L 316.767273 92.090509 
L 317.781818 111.086921 
L 320.825455 185.275974 
L 321.84 200.868983 
L 322.854545 206.25976 
L 323.869091 200.490785 
L 324.883636 184.605659 
L 325.898182 161.461017 
L 327.927273 110.574861 
L 328.941818 91.965623 
L 329.956364 82.724095 
L 330.970909 84.507334 
L 331.985455 96.994473 
L 333 117.944484 
L 335.029091 169.352087 
L 336.043636 190.584302 
L 337.058182 203.482835 
L 338.072727 205.729478 
L 339.087273 196.915725 
L 340.101818 178.616494 
L 343.145455 104.358734 
L 344.16 88.038329 
L 345.174545 81.752091 
L 346.189091 86.634022 
L 347.203636 101.817491 
L 348.218182 124.589655 
L 350.247273 175.972923 
L 351.261818 195.383517 
L 352.276364 205.629474 
L 353.290909 204.871103 
L 354.305455 193.238043 
L 355.32 172.806746 
L 357.349091 121.080405 
L 358.363636 99.038145 
L 359.378182 85.047224 
L 360.392727 81.612471 
L 361.407273 89.350322 
L 362.421818 106.878213 
L 365.465455 181.677202 
L 366.48 199.055825 
L 367.494545 206.603714 
L 368.509091 202.972312 
L 369.523636 188.813464 
L 370.538182 166.662588 
L 372.567273 114.964654 
L 373.581818 94.66847 
L 373.581818 94.66847 
" style="fill:none;stroke:#4c72b0;stroke-linecap:round;stroke-width:1.75;"/>
   </g>
   <g id="patch_3">
    <path d="M 54 252 
L 54 34.56 
" style="fill:none;stroke:#262626;stroke-linecap:square;stroke-linejoin:miter;stroke-width:1.25;"/>
   </g>
   <g id="patch_4">
    <path d="M 388.8 252 
L 388.8 34.56 
" style="fill:none;stroke:#262626;stroke-linecap:square;stroke-linejoin:miter;stroke-width:1.25;"/>
   </g>
   <g id="patch_5">
    <path d="M 54 252 
L 388.8 252 
" style="fill:none;stroke:#262626;stroke-linecap:square;stroke-linejoin:miter;stroke-width:1.25;"/>
   </g>
   <g id="patch_6">
    <path d="M 54 34.56 
L 388.8 34.56 
" style="fill:none;stroke:#262626;stroke-linecap:square;stroke-linejoin:miter;stroke-width:1.25;"/>
   </g>
  </g>
 </g>
 <defs>
  <clipPath id="p5fc3f735bb">
   <rect height="217.44" width="334.8" x="54" y="34.56"/>
  </clipPath>
 </defs>
</svg>
